<svg width="20" height="21" viewBox="0 0 20 21" fill="none" xmlns="http://www.w3.org/2000/svg">
<path d="M15.625 20.197C13.477 20.197 11.451 19.787 9.551 18.967C7.65 18.147 5.992 17.03 4.58 15.617C3.167 14.204 2.051 12.548 1.23 10.646C0.409 8.74402 0 6.72102 0 4.57202C0 4.49402 0.016 4.41602 0.049 4.33802C0.081 4.26002 0.123 4.18902 0.176 4.12302L3.301 0.998021C3.431 0.881021 3.58 0.822021 3.75 0.822021C3.919 0.822021 4.068 0.881021 4.199 0.998021L8.574 5.37302C8.691 5.50302 8.75 5.65302 8.75 5.82202C8.75 5.99102 8.691 6.14102 8.574 6.27102L5.879 8.94702L11.25 14.318L13.926 11.623C14.056 11.506 14.205 11.447 14.375 11.447C14.544 11.447 14.693 11.506 14.824 11.623L19.199 15.998C19.316 16.128 19.375 16.278 19.375 16.447C19.375 16.616 19.316 16.766 19.199 16.896L16.074 20.021C16.009 20.073 15.937 20.115 15.859 20.148C15.781 20.181 15.703 20.197 15.625 20.197ZM3.75 2.32602L1.25 4.82602C1.289 6.75302 1.683 8.56602 2.432 10.265C3.18 11.964 4.193 13.452 5.469 14.728C6.744 16.004 8.233 17.016 9.932 17.765C11.631 18.514 13.444 18.908 15.371 18.947L17.871 16.447L14.375 12.951L11.699 15.646C11.568 15.763 11.419 15.822 11.25 15.822C11.08 15.822 10.931 15.763 10.801 15.646L4.551 9.39602C4.434 9.26602 4.375 9.11602 4.375 8.94702C4.375 8.77802 4.434 8.62802 4.551 8.49802L7.246 5.82202L3.75 2.32602Z" fill="#141414"/>
</svg>
