<svg width="20" height="21" viewBox="0 0 20 21" fill="none" xmlns="http://www.w3.org/2000/svg">
<path d="M11.914 1.458C12.903 1.882 13.767 2.461 14.502 3.196C15.237 3.932 15.817 4.795 16.24 5.784C16.663 6.774 16.875 7.829 16.875 8.948C16.875 9.951 16.699 10.905 16.348 11.809C15.996 12.714 15.521 13.518 14.922 14.221L19.824 19.123C19.941 19.254 20 19.403 20 19.572C20 19.741 19.941 19.891 19.824 20.021C19.759 20.073 19.687 20.116 19.609 20.148C19.531 20.18 19.453 20.197 19.375 20.197C19.297 20.197 19.219 20.18 19.141 20.148C19.063 20.116 18.992 20.073 18.926 20.021L14.024 15.119C13.321 15.719 12.517 16.193 11.612 16.545C10.707 16.897 9.753 17.073 8.75 17.073C7.63 17.073 6.575 16.862 5.586 16.438C4.597 16.015 3.733 15.436 2.998 14.7C2.263 13.965 1.683 13.102 1.26 12.112C0.837 11.123 0.625 10.068 0.625 8.948C0.625 7.829 0.837 6.774 1.26 5.784C1.683 4.795 2.263 3.932 2.998 3.196C3.733 2.461 4.596 1.881 5.586 1.458C6.575 1.035 7.63 0.822998 8.75 0.822998C9.87 0.822998 10.924 1.035 11.914 1.458ZM2.412 11.624C2.77 12.458 3.262 13.187 3.887 13.812C4.512 14.437 5.241 14.929 6.075 15.287C6.908 15.645 7.801 15.824 8.751 15.824C9.701 15.824 10.594 15.645 11.427 15.287C12.26 14.93 12.99 14.437 13.615 13.812C14.24 13.187 14.731 12.458 15.09 11.624C15.448 10.791 15.627 9.899 15.627 8.948C15.627 7.998 15.448 7.106 15.09 6.272C14.732 5.439 14.24 4.709 13.615 4.084C12.99 3.459 12.261 2.968 11.427 2.609C10.592 2.253 9.7 2.073 8.75 2.073C7.8 2.073 6.907 2.253 6.074 2.61C5.241 2.968 4.511 3.46 3.886 4.085C3.261 4.71 2.77 5.439 2.412 6.272C2.053 7.106 1.875 7.998 1.875 8.948C1.875 9.899 2.053 10.791 2.412 11.624Z" fill="#141414"/>
</svg>
