<svg width="29" height="19" viewBox="0 0 29 19" fill="none" xmlns="http://www.w3.org/2000/svg">
<path d="M0.0253906 1.92221C0.0253906 0.924782 0.833964 0.116211 1.83139 0.116211H26.2194C27.2168 0.116211 28.0254 0.924785 28.0254 1.92221V16.3742C28.0254 17.3716 27.2168 18.1802 26.2194 18.1802H1.83139C0.833964 18.1802 0.0253906 17.3716 0.0253906 16.3742V1.92221Z" fill="#F5F5F5"/>
<path d="M9.59923 6.27268C9.59723 6.25568 9.58823 6.23968 9.57523 6.22768C9.56223 6.21668 9.54623 6.20968 9.52823 6.20968C9.50123 6.20968 8.88423 6.16368 8.88423 6.16368C8.88423 6.16368 8.45823 5.74168 8.40523 5.69568C8.35823 5.65068 8.26723 5.66268 8.23223 5.67268C8.22623 5.67268 8.14023 5.70268 7.98923 5.74868C7.84623 5.33268 7.59223 4.95568 7.14823 4.95568H7.10823C6.98723 4.79668 6.82523 4.72168 6.69423 4.72168C5.65523 4.72168 5.15923 6.00468 5.00323 6.65368C4.60123 6.77968 4.31223 6.86368 4.27723 6.87668C4.05323 6.94468 4.04723 6.95068 4.01823 7.16068C3.99623 7.32068 3.40723 11.8237 3.40723 11.8237L7.99023 12.6727L10.4742 12.1427C10.4742 12.1377 9.60523 6.31168 9.59823 6.27268H9.59923ZM7.73723 5.81568C7.60723 5.85468 7.47823 5.89468 7.35023 5.93668V5.85068C7.35023 5.59968 7.31523 5.39468 7.25723 5.22968C7.48923 5.26468 7.63923 5.52068 7.73723 5.81568ZM6.97023 5.28668C7.03323 5.44668 7.07223 5.66768 7.07223 5.97568V6.02168C6.82023 6.10168 6.54923 6.18068 6.27123 6.26668C6.42723 5.67968 6.72223 5.39368 6.97023 5.28668ZM6.66423 4.99568C6.71223 4.99668 6.75923 5.01268 6.79723 5.04168C6.46123 5.19568 6.11023 5.58168 5.96223 6.36468C5.74223 6.43268 5.52823 6.49468 5.32723 6.55668C5.49923 5.96368 5.92023 4.99568 6.66423 4.99568Z" fill="#95BF47"/>
<path d="M9.53009 6.20604C9.50009 6.20604 8.88409 6.16004 8.88409 6.16004C8.88409 6.16004 8.45809 5.73804 8.40509 5.69304C8.38809 5.67504 8.36509 5.66504 8.34109 5.66504L7.99609 12.675L10.4801 12.145L9.60309 6.27504C9.59809 6.25704 9.58909 6.24204 9.57609 6.23004C9.56309 6.21804 9.54709 6.21004 9.52909 6.20604H9.53009Z" fill="#5E8E3E"/>
<path d="M7.14821 7.56139L6.84321 8.46139C6.84321 8.46139 6.57221 8.31839 6.24421 8.31839C5.75921 8.31839 5.73721 8.62039 5.73721 8.69539C5.73721 9.10639 6.82021 9.26439 6.82021 10.2294C6.82021 10.9864 6.33521 11.4764 5.67821 11.4764C4.88921 11.4764 4.49121 10.9924 4.49121 10.9924L4.70421 10.3024C4.70421 10.3024 5.11921 10.6554 5.46521 10.6554C5.50721 10.6574 5.54921 10.6514 5.58921 10.6364C5.62821 10.6214 5.66421 10.5994 5.69521 10.5704C5.75521 10.5134 5.78921 10.4324 5.78821 10.3484C5.78821 9.81239 4.90021 9.78939 4.90021 8.90639C4.90021 8.16539 5.43721 7.44639 6.52521 7.44639C6.94221 7.44239 7.14821 7.56139 7.14821 7.56139Z" fill="white"/>
<path d="M14.6 6.53027C15.686 6.53027 16.39 7.24027 16.39 8.25127C16.39 9.26627 15.686 9.96627 14.595 9.96627H13.297V12.0043H12.543V6.53027H14.601H14.6ZM15.616 8.25127C15.616 7.57327 15.218 7.18327 14.53 7.18327H13.296V9.31727H14.53C15.218 9.31727 15.615 8.92427 15.615 8.25027L15.616 8.25127ZM18.097 12.0723C17.261 12.0723 16.686 11.5583 16.686 10.7773C16.686 10.0393 17.211 9.53727 18.202 9.53727H19.329V9.12027C19.329 8.58327 18.981 8.33927 18.428 8.33927C17.884 8.33927 17.653 8.54427 17.567 8.83627H16.85C16.916 8.12227 17.49 7.71627 18.452 7.71627C19.342 7.71627 20.075 8.09027 20.075 9.12527V12.0043H19.362V11.4473H19.329C19.121 11.7833 18.73 12.0723 18.096 12.0723H18.097ZM18.301 11.4583C18.883 11.4583 19.329 11.0733 19.329 10.5643V10.0913H18.264C17.682 10.0913 17.444 10.3763 17.444 10.7533C17.444 11.2343 17.855 11.4583 18.301 11.4583ZM24.412 7.78527H23.625L22.482 11.2863H22.449L21.309 7.78527H20.486L22.067 12.0563L22.002 12.2733C21.888 12.6943 21.678 12.9353 21.167 12.9353C21.064 12.9353 20.912 12.9263 20.842 12.9153V13.5053C20.993 13.5293 21.145 13.5413 21.297 13.5413C22.22 13.5413 22.535 12.9473 22.777 12.2973L22.887 12.0083L24.412 7.78527Z" fill="#141414"/>
</svg>
