<svg width="11" height="7" viewBox="0 0 11 7" fill="none" xmlns="http://www.w3.org/2000/svg">
<path d="M5.23658 6.58505L0.10325 1.45172C0.0346077 1.37552 0 1.28744 0 1.18832C0 1.08921 0.0346077 1.00126 0.10325 0.924924C0.17952 0.856317 0.267516 0.821655 0.366667 0.821655C0.465808 0.821655 0.553813 0.856317 0.630074 0.924924L5.5 5.80603L10.3699 0.924924C10.4462 0.856317 10.5342 0.821655 10.6333 0.821655C10.7325 0.821655 10.8205 0.856317 10.8967 0.924924C10.9654 1.00126 11 1.08921 11 1.18832C11 1.28744 10.9654 1.37552 10.8967 1.45172L5.76341 6.58505C5.72528 6.61556 5.68304 6.64077 5.63728 6.65953C5.59151 6.67901 5.54576 6.68832 5.5 6.68832C5.45424 6.68832 5.40848 6.67901 5.36271 6.65953C5.31695 6.64077 5.27472 6.61556 5.23658 6.58505Z" fill="#141414"/>
</svg>
