<svg width="29" height="19" viewBox="0 0 29 19" fill="none" xmlns="http://www.w3.org/2000/svg">
<path d="M0.0253906 2.58822C0.0253906 1.5908 0.833964 0.782227 1.83139 0.782227H26.2194C27.2168 0.782227 28.0254 1.5908 28.0254 2.58823V17.0402C28.0254 18.0377 27.2168 18.8462 26.2194 18.8462H1.83139C0.833964 18.8462 0.0253906 18.0377 0.0253906 17.0402V2.58822Z" fill="#F5F5F5"/>
<rect x="16.9492" y="9.84473" width="1.444" height="1" fill="url(#paint0_linear_108_7186)"/>
<path d="M18.3914 4.39551C17.4864 4.39551 16.7434 5.16651 16.7434 6.12851V7.92751H19.0704C19.1244 7.92751 19.1884 7.92751 19.2334 7.93751C19.7584 7.96551 20.1474 8.25151 20.1474 8.74651C20.1474 9.13651 19.8854 9.47051 19.3964 9.53651V9.55551C19.9304 9.59351 20.3374 9.90751 20.3374 10.3935C20.3374 10.9175 19.8854 11.2595 19.2874 11.2595H16.7344V14.7825H19.1514C20.0574 14.7825 20.7994 14.0115 20.7994 13.0495V4.39551H18.3914Z" fill="#21983B"/>
<rect x="16.9492" y="8.52051" width="1.323" height="1" fill="url(#paint1_linear_108_7186)"/>
<path d="M8.4568 4.39551C7.5518 4.39551 6.8088 5.16751 6.8088 6.12951V10.4085C7.2708 10.6465 7.7508 10.7995 8.2308 10.7995C8.8008 10.7995 9.1088 10.4375 9.1088 9.94151V7.92151H10.5208V9.93251C10.5208 10.7135 10.0588 11.3525 8.4928 11.3525C7.5428 11.3525 6.7998 11.1325 6.7998 11.1325V14.7825H9.2168C10.1228 14.7825 10.8648 14.0105 10.8648 13.0485V4.39551H8.4568Z" fill="#005198"/>
<path d="M13.4146 4.39551C12.5096 4.39551 11.7666 5.16551 11.7666 6.12651V8.39051C12.1836 8.01951 12.9076 7.78151 14.0756 7.83851C14.6996 7.86751 15.3696 8.04851 15.3696 8.04851V8.78051C15.0346 8.59951 14.6366 8.43851 14.1206 8.40051C13.2336 8.33351 12.6996 8.79051 12.6996 9.58951C12.6996 10.3975 13.2336 10.8545 14.1206 10.7785C14.6366 10.7395 15.0346 10.5685 15.3696 10.3975V11.1295C15.3696 11.1295 14.7096 11.3105 14.0756 11.3395C12.9076 11.3965 12.1836 11.1585 11.7666 10.7875V14.7825H14.1836C15.0896 14.7825 15.8316 14.0125 15.8316 13.0515V4.39551H13.4146Z" fill="#BC1933"/>
<defs>
<linearGradient id="paint0_linear_108_7186" x1="1.02522" y1="19.9029" x2="0.0252183" y2="19.9029" gradientUnits="userSpaceOnUse">
<stop stop-color="#007940"/>
<stop offset="0.229" stop-color="#00873F"/>
<stop offset="0.743" stop-color="#40A737"/>
<stop offset="1" stop-color="#5CB531"/>
</linearGradient>
<linearGradient id="paint1_linear_108_7186" x1="1.02522" y1="21.0978" x2="0.025219" y2="21.0978" gradientUnits="userSpaceOnUse">
<stop stop-color="#007940"/>
<stop offset="0.229" stop-color="#00873F"/>
<stop offset="0.743" stop-color="#40A737"/>
<stop offset="1" stop-color="#5CB531"/>
</linearGradient>
</defs>
</svg>
