<svg width="20" height="21" viewBox="0 0 20 21" fill="none" xmlns="http://www.w3.org/2000/svg">
<path d="M10.002 6.20705C7.44808 6.20705 5.38806 8.26752 5.38806 10.822C5.38806 13.3765 7.44808 15.437 10.002 15.437C12.5559 15.437 14.616 13.3765 14.616 10.822C14.616 8.26752 12.5559 6.20705 10.002 6.20705ZM10.002 13.8224C8.35159 13.8224 7.00234 12.4768 7.00234 10.822C7.00234 9.16722 8.34757 7.82169 10.002 7.82169C11.6564 7.82169 13.0017 9.16722 13.0017 10.822C13.0017 12.4768 11.6524 13.8224 10.002 13.8224ZM15.8809 6.01827C15.8809 6.61673 15.399 7.0947 14.8047 7.0947C14.2064 7.0947 13.7285 6.61272 13.7285 6.01827C13.7285 5.42383 14.2104 4.94185 14.8047 4.94185C15.399 4.94185 15.8809 5.42383 15.8809 6.01827ZM18.9368 7.11076C18.8685 5.66884 18.5392 4.39159 17.4831 3.33926C16.431 2.28693 15.154 1.95758 13.7124 1.88528C12.2267 1.80093 7.77334 1.80093 6.28756 1.88528C4.84997 1.95356 3.57301 2.28292 2.5169 3.33524C1.46079 4.38757 1.13553 5.66482 1.06325 7.10675C0.978918 8.59286 0.978918 13.0472 1.06325 14.5333C1.13151 15.9752 1.46079 17.2525 2.5169 18.3048C3.57301 19.3571 4.84596 19.6865 6.28756 19.7588C7.77334 19.8431 12.2267 19.8431 13.7124 19.7588C15.154 19.6905 16.431 19.3611 17.4831 18.3048C18.5352 17.2525 18.8645 15.9752 18.9368 14.5333C19.0211 13.0472 19.0211 8.59687 18.9368 7.11076ZM17.0173 16.1278C16.7041 16.9151 16.0977 17.5216 15.3066 17.8389C14.122 18.3088 11.3111 18.2004 10.002 18.2004C8.69292 18.2004 5.87797 18.3048 4.69738 17.8389C3.91032 17.5256 3.30396 16.9191 2.98673 16.1278C2.5169 14.943 2.62532 12.1314 2.62532 10.822C2.62532 9.51264 2.52091 6.69706 2.98673 5.51621C3.29994 4.72897 3.9063 4.12248 4.69738 3.80517C5.88199 3.33524 8.69292 3.44369 10.002 3.44369C11.3111 3.44369 14.126 3.33926 15.3066 3.80517C16.0937 4.11846 16.7001 4.72496 17.0173 5.51621C17.4871 6.70108 17.3787 9.51264 17.3787 10.822C17.3787 12.1314 17.4871 14.947 17.0173 16.1278Z" fill="#141414"/>
</svg>
