<svg width="20" height="21" viewBox="0 0 20 21" fill="none" xmlns="http://www.w3.org/2000/svg">
<path d="M9.99902 4.88C9.25702 4.88 8.57302 5.085 7.94802 5.495C7.32302 5.905 6.86002 6.449 6.56102 7.126C6.49602 7.282 6.49302 7.441 6.55102 7.604C6.60902 7.767 6.72402 7.881 6.89302 7.946C7.04902 8.024 7.20602 8.031 7.36202 7.966C7.51802 7.901 7.63502 7.79 7.71402 7.63401C7.90902 7.178 8.21502 6.814 8.63202 6.54C9.04902 6.267 9.50402 6.13 9.99902 6.13C10.689 6.13 11.278 6.374 11.767 6.862C12.256 7.35 12.499 7.939 12.499 8.63C12.499 9.321 12.255 9.90901 11.767 10.398C11.279 10.887 10.689 11.13 9.99902 11.13C9.83002 11.13 9.68302 11.192 9.56002 11.316C9.43602 11.44 9.37402 11.587 9.37402 11.755V13.63C9.37402 13.799 9.43602 13.945 9.56002 14.069C9.68402 14.193 9.83002 14.255 9.99902 14.255C10.168 14.255 10.314 14.193 10.438 14.069C10.562 13.945 10.624 13.798 10.624 13.63V12.321C11.509 12.177 12.251 11.758 12.851 11.061C13.45 10.365 13.749 9.554 13.749 8.629C13.749 7.60101 13.381 6.718 12.645 5.98301C11.909 5.248 11.027 4.88 9.99902 4.88Z" fill="#141414"/>
<path d="M19.208 6.868C18.681 5.657 17.964 4.599 17.06 3.694C16.155 2.789 15.097 2.073 13.886 1.546C12.675 1.019 11.379 0.755005 9.99902 0.755005C8.61902 0.755005 7.32302 1.019 6.11202 1.546C4.90102 2.073 3.84302 2.789 2.93802 3.694C2.03302 4.599 1.31702 5.657 0.790023 6.868C0.263023 8.079 -0.000976562 9.375 -0.000976562 10.755C-0.000976562 12.135 0.263023 13.431 0.790023 14.642C1.31702 15.853 2.03302 16.911 2.93802 17.816C3.84302 18.721 4.90102 19.437 6.11202 19.964C7.32302 20.491 8.61802 20.755 9.99902 20.755C11.379 20.755 12.675 20.491 13.886 19.964C15.097 19.437 16.155 18.721 17.06 17.816C17.965 16.911 18.681 15.853 19.208 14.642C19.735 13.431 19.999 12.135 19.999 10.755C19.999 9.375 19.735 8.079 19.208 6.868ZM18.055 14.163C17.593 15.225 16.968 16.148 16.18 16.936C15.392 17.724 14.468 18.349 13.407 18.811C12.345 19.273 11.21 19.504 9.99902 19.504C8.78802 19.504 7.65202 19.273 6.59002 18.811C5.52802 18.349 4.60402 17.724 3.81702 16.936C3.02902 16.148 2.40402 15.224 1.94202 14.163C1.48002 13.101 1.24902 11.966 1.24902 10.755C1.24902 9.544 1.48002 8.408 1.94202 7.347C2.40402 6.28501 3.02902 5.361 3.81702 4.573C4.60502 3.785 5.52902 3.16 6.59002 2.698C7.65102 2.236 8.78702 2.005 9.99802 2.005C11.209 2.005 12.345 2.236 13.406 2.698C14.467 3.16 15.391 3.785 16.179 4.573C16.967 5.361 17.592 6.28501 18.054 7.346C18.516 8.408 18.747 9.543 18.747 10.754C18.747 11.965 18.517 13.101 18.055 14.163Z" fill="#141414"/>
<path d="M9.99879 15.6495C10.4078 15.6495 10.7388 15.9805 10.7388 16.3895C10.7388 16.7985 10.4078 17.1295 9.99879 17.1295C9.58979 17.1295 9.25879 16.7985 9.25879 16.3895C9.25879 15.9805 9.58979 15.6495 9.99879 15.6495Z" fill="#141414"/>
</svg>
