<svg width="21" height="22" viewBox="0 0 21 22" fill="none" xmlns="http://www.w3.org/2000/svg">
<path d="M19.5667 6.16901C19.3486 5.24519 18.7061 4.51761 17.8902 4.27069C16.4114 3.82202 10.4815 3.82202 10.4815 3.82202C10.4815 3.82202 4.55163 3.82202 3.07278 4.27069C2.25691 4.51765 1.61434 5.24519 1.39625 6.16901C1 7.84351 1 11.3372 1 11.3372C1 11.3372 1 14.8308 1.39625 16.5053C1.61434 17.4292 2.25691 18.1264 3.07278 18.3734C4.55163 18.822 10.4815 18.822 10.4815 18.822C10.4815 18.822 16.4114 18.822 17.8902 18.3734C18.7061 18.1264 19.3486 17.4292 19.5667 16.5053C19.963 14.8308 19.963 11.3372 19.963 11.3372C19.963 11.3372 19.963 7.84351 19.5667 6.16901ZM8.54208 14.5092V8.16519L13.4983 11.3373L8.54208 14.5092Z" fill="#141414"/>
</svg>
