<svg width="20" height="21" viewBox="0 0 20 21" fill="none" xmlns="http://www.w3.org/2000/svg">
<path d="M13.887 0.988021C15.098 1.51502 16.156 2.23202 17.061 3.13602C17.966 4.04102 18.682 5.09902 19.209 6.31002C19.736 7.52102 20 8.81702 20 10.197C20 11.577 19.736 12.873 19.209 14.084C18.682 15.295 17.965 16.353 17.061 17.258C16.156 18.163 15.098 18.879 13.887 19.406C12.676 19.933 11.38 20.197 10 20.197C8.62 20.197 7.324 19.933 6.113 19.406C4.902 18.879 3.844 18.163 2.939 17.258C2.034 16.353 1.318 15.295 0.791 14.084C0.264 12.873 0 11.578 0 10.197C0 8.81702 0.264 7.52102 0.791 6.31002C1.318 5.09902 2.034 4.04102 2.939 3.13602C3.845 2.23102 4.903 1.51502 6.114 0.988021C7.325 0.461021 8.62 0.197021 10.001 0.197021C11.381 0.197021 12.676 0.460021 13.887 0.988021ZM10.626 18.908C11.707 18.83 12.722 18.57 13.673 18.127C14.623 17.685 15.46 17.102 16.183 16.379C16.906 15.656 17.488 14.82 17.931 13.869C18.373 12.919 18.634 11.903 18.712 10.822H16.251C16.082 10.822 15.935 10.76 15.812 10.636C15.688 10.512 15.626 10.366 15.626 10.197C15.626 10.028 15.688 9.88202 15.812 9.75802C15.936 9.63402 16.082 9.57202 16.251 9.57202H18.712C18.634 8.49102 18.373 7.47602 17.931 6.52502C17.488 5.57502 16.906 4.73802 16.183 4.01502C15.46 3.29202 14.623 2.71002 13.673 2.26702C12.722 1.82502 11.707 1.56402 10.626 1.48602V3.94702C10.626 4.11602 10.564 4.26302 10.44 4.38602C10.316 4.51002 10.169 4.57202 10.001 4.57202C9.832 4.57202 9.685 4.51002 9.562 4.38602C9.438 4.26202 9.376 4.11602 9.376 3.94702V1.48602C8.295 1.56402 7.279 1.82502 6.329 2.26702C5.378 2.71002 4.542 3.29202 3.819 4.01502C3.096 4.73802 2.513 5.57502 2.071 6.52502C1.628 7.47602 1.368 8.49102 1.29 9.57202H3.751C3.92 9.57202 4.066 9.63402 4.19 9.75802C4.314 9.88202 4.376 10.029 4.376 10.197C4.376 10.366 4.314 10.513 4.19 10.636C4.066 10.76 3.919 10.822 3.751 10.822H1.29C1.368 11.903 1.628 12.919 2.071 13.869C2.513 14.82 3.096 15.656 3.819 16.379C4.542 17.102 5.378 17.685 6.329 18.127C7.279 18.57 8.295 18.83 9.376 18.908V16.447C9.376 16.278 9.438 16.132 9.562 16.008C9.686 15.884 9.832 15.822 10.001 15.822C10.17 15.822 10.316 15.884 10.44 16.008C10.564 16.132 10.626 16.279 10.626 16.447V18.908ZM14.19 9.75702C14.314 9.88102 14.376 10.028 14.376 10.196C14.376 10.365 14.314 10.512 14.19 10.635C14.066 10.759 13.919 10.821 13.751 10.821H10.001C9.897 10.821 9.802 10.799 9.718 10.753C9.633 10.708 9.558 10.646 9.493 10.567L5.743 5.56702C5.638 5.43802 5.599 5.28502 5.626 5.10902C5.652 4.93302 5.736 4.79402 5.88 4.68902C6.01 4.58502 6.163 4.54602 6.339 4.57202C6.514 4.59802 6.654 4.68302 6.758 4.82602L10.313 9.57202H13.751C13.92 9.57202 14.066 9.63402 14.19 9.75702Z" fill="#141414"/>
</svg>
