<svg width="17" height="21" viewBox="0 0 17 21" fill="none" xmlns="http://www.w3.org/2000/svg">
<path d="M16.814 20.569C16.69 20.693 16.543 20.755 16.375 20.755H1.375C1.20599 20.755 1.06 20.693 0.936005 20.569C0.811996 20.445 0.75 20.298 0.75 20.13V5.13C0.75 4.961 0.811996 4.815 0.936005 4.69101C1.06 4.56699 1.207 4.505 1.375 4.505H5.125C5.125 3.47699 5.493 2.59399 6.229 1.85901C6.964 1.12399 7.847 0.755005 8.875 0.755005C9.903 0.755005 10.786 1.12299 11.521 1.85901C12.256 2.595 12.625 3.47699 12.625 4.505H16.375C16.544 4.505 16.69 4.56699 16.814 4.69101C16.938 4.815 17 4.96201 17 5.13V20.13C16.999 20.299 16.938 20.445 16.814 20.569ZM15.749 5.755H12.624V8.255C12.624 8.42401 12.562 8.57098 12.438 8.694C12.314 8.81799 12.167 8.88 11.999 8.88C11.831 8.88 11.684 8.81799 11.56 8.694C11.436 8.57001 11.374 8.42401 11.374 8.255V5.755H6.37401V8.255C6.37401 8.42401 6.312 8.57098 6.188 8.694C6.064 8.81799 5.91701 8.88 5.74901 8.88C5.58099 8.88 5.43401 8.81799 5.31 8.694C5.186 8.57001 5.12401 8.42401 5.12401 8.255V5.755H1.99901V19.505H15.749V5.755ZM7.10699 2.737C6.618 3.22598 6.37401 3.815 6.37401 4.505H11.374C11.374 3.815 11.13 3.22598 10.642 2.737C10.154 2.24799 9.565 2.005 8.87401 2.005C8.183 2.005 7.595 2.24899 7.10699 2.737Z" fill="#141414"/>
</svg>
