<svg width="19" height="21" viewBox="0 0 19 21" fill="none" xmlns="http://www.w3.org/2000/svg">
<path d="M1.24902 20.755H-0.000976562V20.13C-0.000976562 19.088 0.162023 18.096 0.487023 17.151C0.812023 16.207 1.26502 15.344 1.84402 14.563C2.42302 13.782 3.11002 13.105 3.90502 12.532C4.69902 11.959 5.56502 11.516 6.50302 11.204C5.68302 10.723 5.01902 10.055 4.51102 9.202C4.00302 8.349 3.74902 7.408 3.74902 6.38C3.74902 5.599 3.89502 4.87 4.18802 4.192C4.48102 3.515 4.88402 2.92 5.39902 2.405C5.91302 1.891 6.50902 1.487 7.18602 1.194C7.86302 0.901005 8.59202 0.755005 9.37402 0.755005C10.156 0.755005 10.884 0.901005 11.562 1.194C12.239 1.487 12.834 1.891 13.349 2.405C13.863 2.92 14.267 3.515 14.56 4.192C14.853 4.869 14.999 5.598 14.999 6.38C14.999 7.409 14.745 8.35 14.237 9.202C13.729 10.055 13.065 10.723 12.245 11.204C13.183 11.517 14.048 11.959 14.843 12.532C15.637 13.105 16.324 13.782 16.904 14.563C17.483 15.344 17.936 16.207 18.261 17.151C18.586 18.095 18.749 19.088 18.749 20.13V20.755H17.499V20.13C17.499 19.01 17.287 17.956 16.864 16.966C16.441 15.977 15.861 15.114 15.126 14.378C14.39 13.643 13.527 13.063 12.538 12.64C11.548 12.217 10.494 12.005 9.37402 12.005C8.25402 12.005 7.19902 12.217 6.21002 12.64C5.22002 13.063 4.35702 13.643 3.62202 14.378C2.88602 15.114 2.30702 15.977 1.88402 16.966C1.46102 17.956 1.24902 19.01 1.24902 20.13V20.755ZM5.34102 8.079C5.56902 8.613 5.88102 9.07901 6.27902 9.47501C6.67602 9.872 7.14102 10.185 7.67502 10.413C8.20902 10.641 8.77502 10.755 9.37402 10.755C9.97302 10.755 10.539 10.641 11.073 10.413C11.607 10.185 12.072 9.873 12.469 9.47501C12.866 9.078 13.178 8.613 13.407 8.079C13.635 7.545 13.749 6.979 13.749 6.38C13.749 5.781 13.635 5.215 13.407 4.68101C13.179 4.147 12.866 3.682 12.469 3.285C12.072 2.888 11.606 2.576 11.073 2.348C10.539 2.12 9.97202 2.006 9.37402 2.006C8.77502 2.006 8.20802 2.12 7.67502 2.348C7.14102 2.576 6.67502 2.889 6.27902 3.285C5.88202 3.682 5.56902 4.148 5.34102 4.68101C5.11302 5.215 4.99902 5.781 4.99902 6.38C4.99902 6.979 5.11302 7.545 5.34102 8.079Z" fill="#141414"/>
</svg>
