<svg width="21" height="19" viewBox="0 0 21 19" fill="none" xmlns="http://www.w3.org/2000/svg">
<path d="M20.319 4.24153C20.033 3.54553 19.616 2.92353 19.069 2.37653C18.509 1.81653 17.878 1.39753 17.174 1.11653C16.47 0.835533 15.751 0.696533 15.016 0.696533C14.281 0.696533 13.558 0.836533 12.848 1.11653C12.138 1.39653 11.503 1.81653 10.944 2.37653C10.918 2.41553 10.888 2.45153 10.856 2.48353L10.749 2.59053L10.642 2.48353C10.61 2.45153 10.58 2.41553 10.554 2.37653C9.99402 1.81653 9.36002 1.39753 8.65002 1.11653C7.94002 0.835533 7.21702 0.696533 6.48202 0.696533C5.74702 0.696533 5.02702 0.836533 4.32402 1.11653C3.62102 1.39653 2.98902 1.81653 2.42902 2.37653C1.88202 2.92253 1.46502 3.54453 1.17902 4.24153C0.893023 4.93853 0.749023 5.67053 0.749023 6.43853C0.749023 7.20653 0.893023 7.93953 1.17902 8.63553C1.46502 9.33153 1.88202 9.95353 2.42902 10.5005L10.3 18.3715L10.311 18.3775L10.75 18.8135L11.189 18.3765L11.199 18.3705L19.07 10.4995C19.617 9.95253 20.034 9.33053 20.32 8.63453C20.606 7.93853 20.75 7.20553 20.75 6.43753C20.75 5.66953 20.605 4.93753 20.319 4.24153ZM19.157 8.15753C18.929 8.70453 18.607 9.18553 18.19 9.60253L10.749 17.0435L3.30802 9.60253C2.89102 9.18553 2.56902 8.70453 2.34102 8.15753C2.11302 7.61053 1.99902 7.03753 1.99902 6.43853C1.99902 5.83953 2.11302 5.26653 2.34102 4.71953C2.56902 4.17253 2.89102 3.68453 3.30802 3.25453C3.75002 2.82453 4.24802 2.49953 4.80202 2.27753C5.35602 2.05553 5.91802 1.94553 6.49102 1.94553C7.06402 1.94553 7.62702 2.05553 8.18002 2.27753C8.73302 2.49953 9.22502 2.82453 9.65502 3.25453C9.75902 3.35853 9.86002 3.46953 9.95802 3.58653C10.056 3.70353 10.144 3.82753 10.222 3.95753C10.339 4.12653 10.515 4.21153 10.749 4.21153C10.983 4.21153 11.159 4.12653 11.276 3.95753C11.354 3.82753 11.442 3.70353 11.54 3.58653C11.638 3.46953 11.738 3.35853 11.843 3.25453C12.273 2.82453 12.764 2.49953 13.318 2.27753C13.872 2.05553 14.434 1.94553 15.007 1.94553C15.58 1.94553 16.143 2.05553 16.696 2.27753C17.249 2.49953 17.748 2.82453 18.19 3.25453C18.607 3.68453 18.929 4.17253 19.157 4.71953C19.385 5.26653 19.499 5.83953 19.499 6.43853C19.499 7.03753 19.385 7.61053 19.157 8.15753Z" fill="#141414"/>
</svg>
