<svg width="20" height="21" viewBox="0 0 20 21" fill="none" xmlns="http://www.w3.org/2000/svg">
<g clip-path="url(#clip0_4002_564)">
<path d="M20 10.822C20 16.1736 15.5242 20.5095 10 20.5095C8.96774 20.5095 7.97581 20.3572 7.04032 20.0759C7.44758 19.4314 8.05645 18.3767 8.28226 17.5369C8.40322 17.0837 8.90323 15.2322 8.90323 15.2322C9.22984 15.8337 10.1815 16.3455 11.1935 16.3455C14.2097 16.3455 16.3831 13.658 16.3831 10.3181C16.3831 7.1189 13.6855 4.72437 10.2177 4.72437C5.90323 4.72437 3.60887 7.52905 3.60887 10.5876C3.60887 12.0095 4.39113 13.7791 5.6371 14.3416C5.82661 14.4275 5.92742 14.3884 5.97177 14.2126C6.00403 14.0798 6.17339 13.4197 6.25 13.115C6.27419 13.0173 6.2621 12.9314 6.18145 12.8376C5.77419 12.3494 5.44355 11.4587 5.44355 10.6267C5.44355 8.48999 7.1129 6.42358 9.95968 6.42358C12.4153 6.42358 14.1371 8.04468 14.1371 10.365C14.1371 12.9861 12.7702 14.8025 10.9919 14.8025C10.0121 14.8025 9.27419 14.0173 9.5121 13.0525C9.79435 11.9001 10.3387 10.658 10.3387 9.82593C10.3387 9.08374 9.92742 8.46265 9.07258 8.46265C8.06855 8.46265 7.2621 9.46655 7.2621 10.8142C7.2621 11.6736 7.56048 12.2517 7.56048 12.2517C7.56048 12.2517 6.57258 16.3064 6.39113 17.0642C6.18952 17.9001 6.27016 19.0798 6.35484 19.8455C2.6371 18.4353 0 14.9275 0 10.822C0 5.47046 4.47581 1.13452 10 1.13452C15.5242 1.13452 20 5.47046 20 10.822Z" fill="#141414"/>
</g>
<defs>
<clipPath id="clip0_4002_564">
<rect width="20" height="20" fill="white" transform="translate(0 0.822021)"/>
</clipPath>
</defs>
</svg>
