<svg width="29" height="19" viewBox="0 0 29 19" fill="none" xmlns="http://www.w3.org/2000/svg">
<path d="M0.0253906 2.20541C0.0253906 1.20799 0.833964 0.399414 1.83139 0.399414H26.2194C27.2168 0.399414 28.0254 1.20799 28.0254 2.20541V16.6574C28.0254 17.6548 27.2168 18.4634 26.2194 18.4634H1.83139C0.833964 18.4634 0.0253906 17.6548 0.0253906 16.6574V2.20541Z" fill="#F5F5F5"/>
<path d="M13.2755 9.56457V11.9356H12.5225V6.07957H14.5175C14.9995 6.06857 15.4645 6.25157 15.8095 6.58557C16.1595 6.90057 16.3565 7.35157 16.3495 7.82157C16.3595 8.29557 16.1625 8.74957 15.8095 9.06557C15.4605 9.39857 15.0295 9.56457 14.5175 9.56357L13.2755 9.56457ZM13.2755 6.80057V8.84557H14.5365C14.8165 8.85357 15.0865 8.74357 15.2805 8.54257C15.6755 8.15857 15.6855 7.52557 15.3005 7.13057C15.2935 7.12357 15.2875 7.11657 15.2805 7.11057C15.0885 6.90557 14.8175 6.79257 14.5365 6.80057H13.2755ZM18.0835 7.79757C18.6405 7.79757 19.0785 7.94657 19.4005 8.24357C19.7225 8.54057 19.8825 8.94857 19.8825 9.46557V11.9356H19.1635V11.3796H19.1305C18.8195 11.8376 18.4045 12.0666 17.8875 12.0666C17.4465 12.0666 17.0765 11.9356 16.7795 11.6736C16.4905 11.4306 16.3275 11.0706 16.3335 10.6926C16.3335 10.2776 16.4905 9.94757 16.8045 9.70257C17.1175 9.45757 17.5355 9.33557 18.0595 9.33557C18.5065 9.33557 18.8745 9.41657 19.1635 9.57957V9.40757C19.1645 9.14957 19.0505 8.90557 18.8525 8.74157C18.6535 8.56257 18.3945 8.46457 18.1265 8.46757C17.7065 8.46757 17.3735 8.64557 17.1285 8.99957L16.4665 8.58257C16.8295 8.05957 17.3695 7.79757 18.0835 7.79757ZM17.1095 10.7096C17.1085 10.9036 17.2015 11.0866 17.3585 11.1996C17.5255 11.3306 17.7315 11.4006 17.9435 11.3966C18.2615 11.3956 18.5655 11.2686 18.7905 11.0446C19.0395 10.8096 19.1645 10.5346 19.1645 10.2186C18.9295 10.0316 18.6025 9.93757 18.1825 9.93757C17.8775 9.93757 17.6215 10.0106 17.4175 10.1586C17.2125 10.3086 17.1095 10.4906 17.1095 10.7096ZM24.0135 7.92857L21.5015 13.7026H20.7255L21.6575 11.6826L20.0045 7.92857H20.8225L22.0165 10.8076H22.0325L23.1945 7.92857H24.0135Z" fill="#141414"/>
<path d="M10.233 9.05412C10.233 8.82412 10.214 8.59612 10.175 8.37012H7.00195V9.66512H8.81895C8.74395 10.0831 8.50095 10.4531 8.14695 10.6881V11.5291H9.23195C9.86695 10.9441 10.233 10.0781 10.233 9.05412Z" fill="#4285F4"/>
<path d="M7.00209 12.3411C7.91009 12.3411 8.67509 12.0431 9.23209 11.5291L8.14709 10.6871C7.84509 10.8921 7.45709 11.0091 7.00209 11.0091C6.12509 11.0091 5.38009 10.4171 5.11309 9.62012H3.99609V10.4871C4.56709 11.6241 5.73009 12.3411 7.00209 12.3411Z" fill="#34A853"/>
<path d="M5.1142 9.62082C4.9732 9.20382 4.9732 8.74982 5.1142 8.33282V7.46582H3.9962C3.5182 8.41682 3.5182 9.53682 3.9962 10.4878L5.1142 9.62082Z" fill="#FBBC04"/>
<path d="M7.00209 6.94454C7.48209 6.93654 7.94509 7.11754 8.29209 7.44854L9.25309 6.48854C8.64409 5.91654 7.83809 5.60254 7.00209 5.61254C5.73009 5.61254 4.56709 6.32954 3.99609 7.46554L5.11309 8.33354C5.38009 7.53554 6.12509 6.94454 7.00209 6.94454Z" fill="#EA4335"/>
</svg>
