<svg width="20" height="16" viewBox="0 0 20 16" fill="none" xmlns="http://www.w3.org/2000/svg">
<path d="M19.961 1.12744C19.974 1.15344 19.981 1.17651 19.981 1.19543V1.26355C19.994 1.28955 20.001 1.30945 20.001 1.32251V15.0725C20.001 15.2424 19.939 15.3885 19.815 15.5115C19.691 15.6355 19.544 15.6975 19.376 15.6975H0.625C0.455994 15.6975 0.309006 15.6355 0.186005 15.5115C0.0619965 15.3885 0 15.2415 0 15.0725V1.32251C0 1.30945 0.0059967 1.29053 0.0200043 1.26355V1.19543C0.0200043 1.17651 0.026001 1.15344 0.0399933 1.12744C0.0529938 1.1145 0.0619965 1.09851 0.0690002 1.07849C0.0749969 1.05847 0.0849915 1.0365 0.0979919 1.0105C0.110992 0.985474 0.117996 0.965454 0.117996 0.951538C0.130997 0.951538 0.139999 0.948486 0.147003 0.941528C0.153 0.935547 0.156998 0.925537 0.156998 0.912476C0.168991 0.899536 0.181992 0.886475 0.194992 0.873535C0.207993 0.860474 0.227005 0.847534 0.253998 0.834473C0.266998 0.821533 0.279999 0.809448 0.292999 0.795532C0.306 0.782471 0.324997 0.775513 0.352005 0.775513C0.365005 0.762451 0.380997 0.75354 0.401001 0.74646C0.421005 0.740479 0.436996 0.73645 0.449997 0.73645C0.475998 0.723511 0.498993 0.716431 0.518005 0.716431C0.537003 0.716431 0.559998 0.710449 0.585999 0.696533H0.625H19.375H19.414C19.44 0.710449 19.463 0.716431 19.482 0.716431C19.501 0.716431 19.524 0.723511 19.55 0.73645C19.563 0.73645 19.579 0.740479 19.599 0.74646C19.619 0.75354 19.635 0.76355 19.648 0.775513C19.674 0.775513 19.693 0.782471 19.707 0.795532C19.72 0.809448 19.733 0.821533 19.746 0.834473C19.772 0.848511 19.791 0.860474 19.805 0.873535C19.818 0.887451 19.831 0.899536 19.844 0.912476C19.844 0.926514 19.847 0.935547 19.854 0.941528C19.86 0.948486 19.87 0.951538 19.883 0.951538C19.883 0.965454 19.889 0.984497 19.903 1.0105C19.916 1.0365 19.929 1.05945 19.942 1.07849C19.954 1.09753 19.961 1.1145 19.961 1.12744ZM18.75 14.4475V2.55249L10.371 8.70447C10.319 8.74353 10.26 8.77246 10.195 8.79248C10.13 8.8125 10.065 8.82153 10 8.82153C9.935 8.82153 9.87 8.81152 9.80499 8.79248C9.74001 8.77246 9.681 8.74353 9.629 8.70447L1.25 2.55249V14.4475H18.75ZM2.539 1.94751L10 7.4165L17.461 1.94751H2.539Z" fill="#141414"/>
</svg>
