<svg width="64" height="66" viewBox="0 0 64 66" fill="none" xmlns="http://www.w3.org/2000/svg">
<g clip-path="url(#clip0_4006_514)">
<path d="M32.0702 0.437012H31.9202C14.4239 0.437012 0.240234 14.6206 0.240234 32.117V33.777C0.240234 51.2734 14.4239 65.457 31.9202 65.457H32.0702C49.5666 65.457 63.7502 51.2734 63.7502 33.777V32.117C63.7502 14.6206 49.5666 0.437012 32.0702 0.437012Z" stroke="#636363" stroke-width="0.49" stroke-miterlimit="10"/>
<path d="M15.46 17.687H19.41L32 36.457L44.59 17.687H48.54V52.077H44.64V24.197L32.05 42.647H31.85L19.26 24.277V52.077H15.46V17.687Z" fill="#636363"/>
<path d="M16.4902 13.4471L16.6602 13.2471C16.7725 13.357 16.9053 13.4437 17.0512 13.5021C17.1971 13.5604 17.3531 13.5893 17.5102 13.5871C17.8402 13.5871 18.0602 13.4171 18.0602 13.1771C18.0602 12.9471 17.9402 12.8171 17.4202 12.7071C16.9002 12.5971 16.5902 12.4071 16.5902 11.9971C16.5964 11.8983 16.6225 11.8019 16.6671 11.7136C16.7117 11.6253 16.7737 11.547 16.8495 11.4834C16.9252 11.4198 17.0131 11.3723 17.1078 11.3437C17.2024 11.3151 17.3019 11.306 17.4002 11.3171C17.7184 11.3104 18.028 11.4207 18.2702 11.6271L18.1102 11.8371C17.9115 11.6618 17.6552 11.5657 17.3902 11.5671C17.0702 11.5671 16.8702 11.7471 16.8702 11.9671C16.8702 12.1971 16.9902 12.3271 17.5402 12.4471C18.0902 12.5671 18.3402 12.7571 18.3402 13.1371C18.3402 13.5571 17.9902 13.8271 17.5002 13.8271C17.1276 13.833 16.7666 13.6972 16.4902 13.4471Z" fill="#636363"/>
<path d="M19.29 11.197H19.56V12.267C19.6205 12.156 19.7103 12.0637 19.8196 12.0002C19.929 11.9367 20.0536 11.9045 20.18 11.907C20.2758 11.9023 20.3714 11.9183 20.4605 11.9537C20.5496 11.9891 20.63 12.0433 20.6964 12.1125C20.7628 12.1817 20.8135 12.2643 20.8452 12.3548C20.8768 12.4453 20.8887 12.5415 20.88 12.637V13.767H20.61V12.747C20.6205 12.6767 20.6152 12.6049 20.5945 12.5368C20.5738 12.4687 20.5383 12.4061 20.4904 12.3535C20.4426 12.3008 20.3836 12.2595 20.3178 12.2324C20.2521 12.2054 20.1811 12.1933 20.11 12.197C20.0357 12.1955 19.9618 12.2094 19.8931 12.2378C19.8244 12.2662 19.7622 12.3084 19.7106 12.362C19.659 12.4155 19.6189 12.4791 19.593 12.5488C19.5671 12.6185 19.5559 12.6928 19.56 12.767V13.767H19.29V11.197Z" fill="#636363"/>
<path d="M21.77 12.907C21.8358 12.707 21.963 12.5328 22.1336 12.4093C22.3042 12.2858 22.5094 12.2193 22.72 12.2193C22.9306 12.2193 23.1358 12.2858 23.3064 12.4093C23.477 12.5328 23.6043 12.707 23.67 12.907C23.6043 13.1071 23.477 13.2813 23.3064 13.4048C23.1358 13.5283 22.9306 13.5948 22.72 13.5948C22.5094 13.5948 22.3042 13.5283 22.1336 13.4048C21.963 13.2813 21.8358 13.1071 21.77 12.907ZM23.39 12.907C23.3927 12.8164 23.3775 12.7261 23.3452 12.6414C23.313 12.5567 23.2644 12.4791 23.2022 12.4132C23.1399 12.3472 23.0653 12.2942 22.9826 12.2571C22.8999 12.22 22.8106 12.1996 22.72 12.197C22.6295 12.1969 22.5398 12.2152 22.4565 12.2507C22.3732 12.2863 22.298 12.3383 22.2353 12.4037C22.1727 12.4692 22.124 12.5466 22.0921 12.6314C22.0603 12.7162 22.046 12.8065 22.05 12.897C22.0474 12.9876 22.0626 13.0779 22.0948 13.1626C22.127 13.2474 22.1757 13.3249 22.2379 13.3909C22.3001 13.4568 22.3747 13.5098 22.4574 13.5469C22.5402 13.584 22.6294 13.6044 22.72 13.607C22.8106 13.6071 22.9002 13.5888 22.9835 13.5533C23.0668 13.5178 23.1421 13.4657 23.2047 13.4003C23.2673 13.3349 23.316 13.2574 23.3479 13.1726C23.3797 13.0879 23.3941 12.9975 23.39 12.907Z" fill="#636363"/>
<path d="M24.5898 11.987H24.8598V12.357C24.9309 12.2338 25.0329 12.1313 25.1556 12.0594C25.2783 11.9875 25.4176 11.9488 25.5598 11.947C25.6794 11.9495 25.7971 11.9761 25.9062 12.0251C26.0152 12.0741 26.1132 12.1446 26.1944 12.2323C26.2756 12.32 26.3383 12.4232 26.3788 12.5357C26.4192 12.6482 26.4366 12.7677 26.4298 12.887C26.4453 13.0111 26.4345 13.1371 26.398 13.2567C26.3615 13.3763 26.3002 13.4869 26.2181 13.5813C26.136 13.6756 26.035 13.7516 25.9216 13.8043C25.8081 13.857 25.6849 13.8852 25.5598 13.887C25.4197 13.8864 25.2821 13.8503 25.1597 13.7821C25.0373 13.7139 24.9341 13.6158 24.8598 13.497V14.407H24.5898V11.987ZM26.1498 12.907C26.1567 12.8184 26.1453 12.7293 26.1163 12.6452C26.0874 12.5612 26.0415 12.484 25.9815 12.4184C25.9215 12.3528 25.8487 12.3002 25.7676 12.2638C25.6865 12.2275 25.5987 12.2081 25.5098 12.207C25.421 12.2083 25.3333 12.2273 25.2518 12.2628C25.1704 12.2983 25.0968 12.3496 25.0354 12.4138C24.974 12.478 24.9259 12.5538 24.8941 12.6368C24.8622 12.7197 24.8472 12.8082 24.8498 12.897C24.8472 12.9863 24.8621 13.0753 24.8939 13.1588C24.9256 13.2423 24.9735 13.3188 25.0348 13.3838C25.0961 13.4488 25.1696 13.5011 25.2511 13.5377C25.3326 13.5743 25.4205 13.5944 25.5098 13.597C25.5983 13.5973 25.6858 13.5792 25.7669 13.544C25.848 13.5087 25.9209 13.4571 25.981 13.3923C26.0412 13.3274 26.0872 13.2508 26.1163 13.1673C26.1453 13.0838 26.1568 12.9952 26.1498 12.907Z" fill="#636363"/>
<path d="M27.3599 11.2971H27.6699V11.5971H27.3599V11.2971ZM27.3599 11.9871H27.6299V13.8071H27.3599V11.9871Z" fill="#636363"/>
<path d="M28.7998 12.1971H28.5498V11.9971H28.7998V11.8371C28.7888 11.6654 28.8464 11.4964 28.9598 11.3671C29.0702 11.2707 29.2134 11.2206 29.3598 11.2271C29.4623 11.2216 29.5647 11.2386 29.6598 11.2771V11.5071C29.5703 11.4932 29.4793 11.4932 29.3898 11.5071C29.1798 11.5071 29.0698 11.6271 29.0698 11.8871V12.0371H29.6498V12.1971H29.0798V13.7771H28.7998V12.1971Z" fill="#636363"/>
<path d="M31.7902 11.9871H32.0802L31.3102 13.8671C31.1502 14.2371 30.9802 14.3771 30.7002 14.3771C30.565 14.3782 30.4313 14.3473 30.3102 14.2871L30.4102 14.0671C30.4949 14.1169 30.5921 14.1412 30.6902 14.1371C30.8502 14.1371 30.9602 14.0571 31.0702 13.7971L30.2402 11.9871H30.5402L31.2002 13.5071L31.7902 11.9871Z" fill="#636363"/>
<path d="M35.1098 11.6069H34.2798V11.3469H36.2198V11.6069H35.3898V13.8069H35.1098V11.6069Z" fill="#636363"/>
<path d="M37.1201 11.197H37.3901V12.267C37.4513 12.1544 37.5427 12.0611 37.654 11.9975C37.7653 11.9339 37.892 11.9026 38.0201 11.907C38.1155 11.9021 38.2108 11.918 38.2994 11.9535C38.3881 11.989 38.468 12.0434 38.5336 12.1128C38.5992 12.1822 38.6489 12.265 38.6794 12.3555C38.7099 12.446 38.7204 12.5421 38.7101 12.637V13.767H38.4401V12.747C38.4506 12.6767 38.4453 12.6049 38.4246 12.5368C38.4039 12.4687 38.3684 12.4061 38.3205 12.3535C38.2727 12.3008 38.2137 12.2595 38.1479 12.2324C38.0821 12.2054 38.0112 12.1933 37.9401 12.197C37.8658 12.1955 37.7919 12.2094 37.7232 12.2378C37.6544 12.2662 37.5923 12.3084 37.5407 12.362C37.489 12.4155 37.449 12.4791 37.4231 12.5488C37.3972 12.6185 37.386 12.6928 37.3901 12.767V13.767H37.1201V11.197Z" fill="#636363"/>
<path d="M39.6002 12.907C39.5935 12.7864 39.6111 12.6656 39.6521 12.5519C39.693 12.4382 39.7564 12.3339 39.8386 12.2452C39.9207 12.1566 40.0198 12.0854 40.1301 12.0358C40.2403 11.9863 40.3594 11.9595 40.4802 11.957C40.6046 11.9585 40.7272 11.9866 40.8398 12.0395C40.9524 12.0923 41.0523 12.1687 41.1329 12.2635C41.2134 12.3583 41.2727 12.4692 41.3068 12.5889C41.3408 12.7085 41.3488 12.834 41.3302 12.957V13.047H39.8802C39.8879 13.2115 39.9588 13.3667 40.078 13.4803C40.1972 13.5939 40.3556 13.6572 40.5202 13.657C40.629 13.6581 40.7368 13.6364 40.8367 13.5934C40.9366 13.5503 41.0263 13.4868 41.1002 13.407L41.2702 13.557C41.1754 13.665 41.0584 13.7512 40.9273 13.8099C40.7961 13.8686 40.6539 13.8983 40.5102 13.897C40.3832 13.8991 40.2572 13.8742 40.1405 13.8241C40.0238 13.774 39.9191 13.6997 39.8331 13.6062C39.7471 13.5127 39.682 13.4021 39.6418 13.2815C39.6017 13.161 39.5875 13.0334 39.6002 12.907ZM41.0502 12.797C41.0529 12.7182 41.04 12.6397 41.0123 12.5658C40.9846 12.492 40.9426 12.4244 40.8887 12.3668C40.8349 12.3092 40.7702 12.2628 40.6984 12.2303C40.6266 12.1977 40.549 12.1796 40.4702 12.177C40.311 12.1847 40.161 12.2535 40.0511 12.3689C39.9412 12.4843 39.88 12.6377 39.8802 12.797H41.0502Z" fill="#636363"/>
<path d="M42.23 11.9871H42.5V12.2971C42.5577 12.191 42.6429 12.1025 42.7468 12.0408C42.8506 11.9792 42.9692 11.9468 43.09 11.9471C43.2129 11.9418 43.3345 11.9745 43.4383 12.0407C43.542 12.1069 43.6229 12.2034 43.67 12.3171C43.7372 12.2046 43.8324 12.1114 43.9463 12.0466C44.0602 11.9818 44.1889 11.9475 44.32 11.9471C44.4142 11.9435 44.508 11.9604 44.595 11.9966C44.682 12.0329 44.7601 12.0876 44.8239 12.1571C44.8876 12.2265 44.9355 12.309 44.9642 12.3988C44.9928 12.4886 45.0017 12.5835 44.99 12.6771V13.8071H44.72V12.7471C44.72 12.3971 44.55 12.1971 44.25 12.1971C44.179 12.1966 44.1086 12.2112 44.0437 12.24C43.9788 12.2688 43.9207 12.3111 43.8734 12.3641C43.8261 12.417 43.7906 12.4795 43.7693 12.5473C43.7481 12.615 43.7415 12.6866 43.75 12.7571V13.7571H43.48V12.7371C43.48 12.3971 43.3 12.1971 43.01 12.1971C42.9386 12.1996 42.8684 12.2165 42.8037 12.2468C42.739 12.2771 42.6811 12.3201 42.6335 12.3734C42.5858 12.4266 42.5494 12.4889 42.5265 12.5566C42.5036 12.6242 42.4945 12.6958 42.5 12.7671V13.7671H42.23V11.9871Z" fill="#636363"/>
<path d="M45.8898 12.907C45.883 12.7864 45.9007 12.6656 45.9416 12.5519C45.9826 12.4382 46.046 12.3339 46.1281 12.2452C46.2102 12.1566 46.3094 12.0854 46.4196 12.0358C46.5299 11.9863 46.649 11.9595 46.7698 11.957C46.8942 11.9585 47.0168 11.9866 47.1294 12.0395C47.2419 12.0923 47.3419 12.1687 47.4224 12.2635C47.503 12.3583 47.5623 12.4692 47.5963 12.5889C47.6304 12.7085 47.6384 12.834 47.6198 12.957V13.047H46.1698C46.1775 13.2115 46.2483 13.3667 46.3675 13.4803C46.4867 13.5939 46.6451 13.6572 46.8098 13.657C46.9185 13.6581 47.0263 13.6364 47.1262 13.5934C47.2261 13.5503 47.3159 13.4868 47.3898 13.407L47.5598 13.557C47.465 13.665 47.348 13.7512 47.2168 13.8099C47.0857 13.8686 46.9434 13.8983 46.7998 13.897C46.6728 13.8991 46.5468 13.8742 46.4301 13.8241C46.3134 13.774 46.2086 13.6997 46.1226 13.6062C46.0367 13.5127 45.9715 13.4021 45.9314 13.2815C45.8912 13.161 45.8771 13.0334 45.8898 12.907ZM47.3398 12.797C47.3424 12.7182 47.3296 12.6397 47.3018 12.5658C47.2741 12.492 47.2322 12.4244 47.1783 12.3668C47.1244 12.3092 47.0597 12.2628 46.9879 12.2303C46.9161 12.1977 46.8386 12.1796 46.7598 12.177C46.6006 12.1847 46.4505 12.2535 46.3406 12.3689C46.2308 12.4843 46.1696 12.6377 46.1698 12.797H47.3398Z" fill="#636363"/>
<path d="M25.0801 49.7671H25.3601L26.2601 51.1071L27.1601 49.7671H27.4401V52.1971H27.1701V50.1971L26.2701 51.5171L25.3501 50.1971V52.1971H25.0801V49.7671Z" fill="#636363"/>
<path d="M29 49.7671H29.28V52.1971H29V49.7671Z" fill="#636363"/>
<path d="M30.7002 51.867L30.8702 51.667C30.9819 51.7784 31.1145 51.8666 31.2604 51.9266C31.4062 51.9867 31.5625 52.0174 31.7202 52.017C32.0502 52.017 32.2702 51.837 32.2702 51.597C32.2702 51.367 32.1502 51.237 31.6302 51.127C31.1102 51.017 30.8002 50.827 30.8002 50.417C30.8062 50.3187 30.8324 50.2226 30.8771 50.1348C30.9218 50.0469 30.984 49.9692 31.0599 49.9064C31.1359 49.8436 31.2239 49.7971 31.3185 49.7696C31.4132 49.7422 31.5125 49.7345 31.6102 49.747C31.9271 49.7376 32.2365 49.8443 32.4802 50.047L32.3202 50.257C32.1182 50.0885 31.8633 49.9964 31.6002 49.997C31.2802 49.997 31.0802 50.167 31.0802 50.387C31.0802 50.617 31.2002 50.747 31.7502 50.867C32.3002 50.987 32.5502 51.187 32.5502 51.557C32.5502 51.977 32.2002 52.247 31.7102 52.247C31.3375 52.253 30.9765 52.1172 30.7002 51.867Z" fill="#636363"/>
<path d="M34 49.7671H35.78V50.0171H34.28V50.8571H35.62V51.1171H34.25V51.9771H35.77V52.1971H34V49.7671Z" fill="#636363"/>
<path d="M38.23 50.0171C38.23 50.0171 38.23 50.0171 38.14 50.0771C38.2228 50.9375 37.9959 51.7992 37.5 52.5071L37.29 52.3771C37.7731 51.6795 37.9864 50.8302 37.89 49.9871L38.23 50.0171ZM39.14 52.0171C39.4227 51.8768 39.6728 51.6789 39.8743 51.436C40.0758 51.1932 40.2243 50.9108 40.31 50.6071C40.3787 50.6608 40.4524 50.7077 40.53 50.7471C40.4147 51.0982 40.2269 51.4211 39.9788 51.695C39.7308 51.9689 39.428 52.1876 39.09 52.3371C39.0761 52.365 39.0555 52.3891 39.03 52.4071L38.85 52.1971V52.1471V49.5571H39.18C39.1746 49.5751 39.1643 49.5913 39.1501 49.6036C39.136 49.616 39.1186 49.6242 39.1 49.6271L39.14 52.0171Z" fill="#636363"/>
</g>
<defs>
<clipPath id="clip0_4006_514">
<rect width="64" height="65.51" fill="white" transform="translate(0 0.197021)"/>
</clipPath>
</defs>
</svg>
